<svg width="239" height="116" viewBox="0 0 239 116" fill="none" xmlns="http://www.w3.org/2000/svg">
<path d="M8.01942 110.648C12.6188 110.648 15.9209 107.11 15.9209 102.511V79.6319H38.446C42.5737 79.6319 45.7578 76.5656 45.7578 72.438C45.7578 68.4283 42.6916 65.2441 38.446 65.2441H15.9209V45.7852H44.8144C48.942 45.7852 52.1262 42.6011 52.1262 38.5913C52.1262 34.4637 49.06 31.3975 44.8144 31.3975H8.13735C3.42004 31.3975 0 34.8175 0 39.5348V102.511C0 107.11 3.30211 110.648 8.01942 110.648Z" fill="#07070F"/>
<circle cx="203.821" cy="80.233" r="27.0665" stroke="#E8E8E8" stroke-width="0.581091" stroke-linecap="round" stroke-linejoin="round" stroke-dasharray="0.78 2.34"/>
<path d="M170.481 82.3255C170.481 97.0081 158.579 108.911 143.896 108.911C129.213 108.911 117.311 97.0081 117.311 82.3255C117.311 67.6428 129.213 55.7402 143.896 55.7402C158.579 55.7402 170.481 67.6428 170.481 82.3255ZM133.036 82.3255C133.036 88.3234 137.898 93.1857 143.896 93.1857C149.894 93.1857 154.756 88.3234 154.756 82.3255C154.756 76.3275 149.894 71.4652 143.896 71.4652C137.898 71.4652 133.036 76.3275 133.036 82.3255Z" fill="#FF7622"/>
<path d="M109.335 82.3255C109.335 97.0081 97.4321 108.911 82.7495 108.911C68.0669 108.911 56.1643 97.0081 56.1643 82.3255C56.1643 67.6428 68.0669 55.7402 82.7495 55.7402C97.4321 55.7402 109.335 67.6428 109.335 82.3255ZM71.8892 82.3255C71.8892 88.3234 76.7516 93.1857 82.7495 93.1857C88.7475 93.1857 93.6098 88.3234 93.6098 82.3255C93.6098 76.3275 88.7475 71.4652 82.7495 71.4652C76.7516 71.4652 71.8892 76.3275 71.8892 82.3255Z" fill="#FF7622"/>
<path fill-rule="evenodd" clip-rule="evenodd" d="M44.322 100.945C44.322 100.462 44.7136 100.071 45.1965 100.071H58.5125C58.9955 100.071 59.387 100.462 59.387 100.945C59.387 101.428 58.9955 101.82 58.5125 101.82H45.1965C44.7136 101.82 44.322 101.428 44.322 100.945Z" fill="#FF7622"/>
<path fill-rule="evenodd" clip-rule="evenodd" d="M105.549 100.945C105.549 100.462 105.94 100.071 106.423 100.071H119.739C120.222 100.071 120.614 100.462 120.614 100.945C120.614 101.428 120.222 101.82 119.739 101.82H106.423C105.94 101.82 105.549 101.428 105.549 100.945Z" fill="#FF7622"/>
<path fill-rule="evenodd" clip-rule="evenodd" d="M33.688 108.035C33.688 107.552 34.0795 107.161 34.5625 107.161L58.5125 107.161C58.9955 107.161 59.387 107.552 59.387 108.035C59.387 108.518 58.9955 108.91 58.5125 108.91L34.5625 108.91C34.0795 108.91 33.688 108.518 33.688 108.035Z" fill="#FF7622"/>
<path fill-rule="evenodd" clip-rule="evenodd" d="M94.9148 108.035C94.9148 107.552 95.3063 107.161 95.7893 107.161L119.739 107.161C120.222 107.161 120.614 107.552 120.614 108.035C120.614 108.518 120.222 108.91 119.739 108.91L95.7893 108.91C95.3063 108.91 94.9148 108.518 94.9148 108.035Z" fill="#FF7622"/>
<path fill-rule="evenodd" clip-rule="evenodd" d="M44.322 115.125C44.322 114.643 44.7136 114.251 45.1965 114.251L69.1466 114.251C69.6295 114.251 70.0211 114.643 70.0211 115.125C70.0211 115.608 69.6295 116 69.1466 116L45.1965 116C44.7136 116 44.322 115.608 44.322 115.125Z" fill="#FF7622"/>
<path fill-rule="evenodd" clip-rule="evenodd" d="M105.549 115.125C105.549 114.643 105.94 114.251 106.423 114.251L130.373 114.251C130.856 114.251 131.248 114.643 131.248 115.125C131.248 115.608 130.856 116 130.373 116L106.423 116C105.94 116 105.549 115.608 105.549 115.125Z" fill="#FF7622"/>
<path d="M152.587 52.6835C154.723 52.6835 156.472 50.9485 156.276 48.822C155.379 39.086 151.108 29.9203 144.138 22.9499C136.252 15.064 125.556 10.6338 114.404 10.6338C103.252 10.6338 92.5562 15.064 84.6704 22.9499C77.6999 29.9203 73.4294 39.086 72.5319 48.822C72.3358 50.9485 74.0855 52.6835 76.2209 52.6835L114.404 52.6835H152.587Z" fill="#FF7622"/>
<path d="M119.721 7.73405C119.721 10.9373 117.341 13.534 114.404 13.534C111.468 13.534 109.088 10.9373 109.088 7.73405C109.088 4.53081 111.468 1.93408 114.404 1.93408C117.341 1.93408 119.721 4.53081 119.721 7.73405Z" fill="white"/>
<path fill-rule="evenodd" clip-rule="evenodd" d="M114.404 3.86664C112.691 3.86664 111.021 5.43601 111.021 7.73328C111.021 10.0306 112.691 11.5999 114.404 11.5999C116.118 11.5999 117.788 10.0306 117.788 7.73328C117.788 5.43601 116.118 3.86664 114.404 3.86664ZM107.155 7.73328C107.155 3.6241 110.246 0 114.404 0C118.563 0 121.654 3.6241 121.654 7.73328C121.654 11.8425 118.563 15.4666 114.404 15.4666C110.246 15.4666 107.155 11.8425 107.155 7.73328Z" fill="#FF7622"/>
<path d="M97.2345 23.6846C96.7655 22.9056 95.7547 22.6454 94.9922 23.1409C89.2281 26.8865 84.7041 32.2187 81.9819 38.4741C81.6105 39.3277 82.0581 40.3018 82.9318 40.6231C83.7943 40.9404 84.7472 40.501 85.1175 39.6599C87.56 34.1103 91.5729 29.3713 96.674 26.0117C97.4465 25.503 97.7116 24.477 97.2345 23.6846Z" fill="white"/>
<path d="M103.953 20.685C103.666 19.8215 102.735 19.3466 101.883 19.6656C100.971 20.0073 100.073 20.3863 99.1918 20.8015C98.3559 21.1955 98.052 22.2156 98.4944 23.0269C98.9298 23.8251 99.9245 24.1203 100.748 23.7358C101.455 23.406 102.174 23.102 102.903 22.8243C103.763 22.4967 104.242 21.5585 103.953 20.685Z" fill="white"/>
<rect x="220.254" y="29.9663" width="18.3666" height="79.2662" rx="8.91005" fill="#07070F"/>
<path d="M232.82 80.7162C232.82 96.4654 220.053 109.233 204.304 109.233C188.555 109.233 175.787 96.4654 175.787 80.7162C175.787 64.967 188.555 52.1997 204.304 52.1997C220.053 52.1997 232.82 64.967 232.82 80.7162ZM192.655 80.7162C192.655 87.1499 197.87 92.3654 204.304 92.3654C210.738 92.3654 215.953 87.1499 215.953 80.7162C215.953 74.2825 210.738 69.067 204.304 69.067C197.87 69.067 192.655 74.2825 192.655 80.7162Z" fill="#07070F"/>
</svg>
